<?xml version="1.0" standalone="no"?><!DOCTYPE svg PUBLIC "-//W3C//DTD SVG 1.1//EN" "http://www.w3.org/Graphics/SVG/1.1/DTD/svg11.dtd"><svg t="1559065620514" class="icon" style="" viewBox="0 0 1024 1024" version="1.1" xmlns="http://www.w3.org/2000/svg" p-id="5939" xmlns:xlink="http://www.w3.org/1999/xlink" width="20" height="20"><defs><style type="text/css"></style></defs><path d="M900.3008 521.728c-1.1264-2.7648-28.9792-69.0176-90.4192-135.8848-36.2496-39.424-76.8-70.9632-120.5248-93.5936-54.8864-28.4672-114.7904-42.9056-177.8688-42.9056-64.6144 0-125.44 14.4384-180.5312 42.9056-43.9296 22.6304-84.3776 54.1696-120.1152 93.7984-60.5184 66.9696-86.528 133.4272-87.552 136.192l-3.3792 8.8064 4.5056 8.2944c1.3312 2.4576 32.8704 59.8016 96.0512 117.6576 37.1712 34.0992 77.824 61.2352 120.6272 80.6912 53.76 24.4736 111.104 36.9664 170.496 36.9664 58.5728 0 115.5072-12.3904 169.2672-36.9664 42.7008-19.456 83.456-46.6944 120.9344-80.6912 63.6928-57.7536 96.256-115.0976 97.5872-117.4528l4.8128-8.704-3.8912-9.1136zM773.2224 627.6096c-34.4064 30.9248-71.4752 55.6032-110.1824 73.216-48.128 21.8112-99.0208 32.8704-151.4496 32.8704-53.1456 0-104.5504-11.0592-152.7808-32.8704-38.8096-17.6128-75.6736-42.1888-109.6704-73.1136-44.9536-40.8576-73.0112-82.3296-83.7632-99.6352 8.9088-19.456 33.4848-67.8912 76.9024-115.712 32.3584-35.6352 68.8128-63.8976 108.2368-84.1728 49.0496-25.1904 103.2192-37.888 161.0752-37.888 56.2176 0 109.4656 12.8 158.3104 37.888 39.3216 20.2752 75.9808 48.64 109.056 84.3776 44.032 47.616 69.8368 95.9488 79.4624 115.6096-11.3664 17.5104-40.0384 58.6752-85.1968 99.4304z" p-id="5940"></path><path d="M511.5904 349.4912c-83.5584 0-151.552 67.9936-151.552 151.552s67.9936 151.552 151.552 151.552 151.552-67.9936 151.552-151.552-67.9936-151.552-151.552-151.552z m0 262.144c-61.0304 0-110.592-49.664-110.592-110.592 0-61.0304 49.664-110.592 110.592-110.592 61.0304 0 110.592 49.664 110.592 110.592 0 61.0304-49.5616 110.592-110.592 110.592z" p-id="5941"></path></svg>